<svg width="870" height="203" viewBox="0 0 870 203" fill="none" xmlns="http://www.w3.org/2000/svg">
<path d="M180.645 151.303H70.0608V167.653H180.645V151.303Z" fill="white"/>
<path d="M199.28 48.103C198.401 46.6966 197.171 45.6417 195.764 44.7627C195.764 44.7627 178.359 38.6094 168.514 38.6094C153.746 38.6094 142.67 44.4111 130.187 51.795C125.616 54.4322 120.518 57.5968 114.892 60.9371H114.716L61.0945 51.795C60.2154 51.6192 59.3363 51.7951 58.6331 52.1467L50.0185 56.0144C47.9088 56.8935 47.9088 59.8823 50.0185 60.9371L85.532 78.1664C85.7078 78.1664 85.7078 78.518 85.532 78.6938C65.8414 90.1214 48.7878 100.142 48.7878 100.142C48.612 100.318 48.4363 100.318 48.2604 100.494C41.4039 104.538 33.1408 105.768 25.2294 104.01L6.24208 99.7908C5.36304 99.615 4.30816 99.615 3.25331 99.9667C-0.26287 101.197 -1.14185 105.593 1.67109 108.054L22.9439 127.569C26.2843 130.557 31.0311 131.436 35.2505 129.854L45.7991 125.635L106.102 100.318L191.193 64.4533C199.808 60.7613 203.148 53.7289 199.28 48.103Z" fill="white"/>
<path d="M122.276 101.021L96.9595 111.57L92.2126 132.491C91.861 133.722 92.9158 134.953 94.1465 134.953H96.6078C99.9482 134.953 103.113 133.195 105.047 130.382L122.276 101.021Z" fill="white"/>
<path d="M275.282 149.945C269.162 149.945 263.806 148.865 259.216 146.705C254.626 144.545 251.026 141.62 248.415 137.929C245.895 134.239 244.455 130.144 244.095 125.644H250.441C251.161 130.594 253.456 135.004 257.326 138.874C261.286 142.745 267.272 144.68 275.282 144.68C279.962 144.68 284.013 143.825 287.433 142.115C290.943 140.404 293.643 138.064 295.533 135.094C297.424 132.124 298.369 128.839 298.369 125.238C298.369 120.648 297.244 117.003 294.993 114.303C292.833 111.603 290.088 109.577 286.758 108.227C283.518 106.877 279.107 105.437 273.527 103.907C267.407 102.287 262.456 100.667 258.676 99.0467C254.986 97.4266 251.836 94.9515 249.225 91.6212C246.705 88.201 245.445 83.5657 245.445 77.7154C245.445 73.2151 246.615 69.1198 248.955 65.4296C251.386 61.6493 254.806 58.6791 259.216 56.519C263.626 54.3589 268.712 53.2788 274.472 53.2788C282.843 53.2788 289.593 55.3489 294.723 59.4892C299.854 63.6295 302.914 68.7148 303.904 74.7452H297.424C296.884 72.315 295.668 69.8399 293.778 67.3197C291.978 64.7995 289.368 62.7294 285.948 61.1093C282.618 59.3992 278.612 58.5441 273.932 58.5441C267.632 58.5441 262.321 60.2993 258.001 63.8095C253.681 67.2297 251.521 71.82 251.521 77.5803C251.521 82.1706 252.646 85.8609 254.896 88.6511C257.146 91.3512 259.891 93.4214 263.131 94.8615C266.462 96.2115 270.917 97.6066 276.497 99.0467C282.708 100.757 287.613 102.422 291.213 104.042C294.903 105.572 298.009 108.047 300.529 111.468C303.139 114.798 304.444 119.343 304.444 125.103C304.444 129.334 303.319 133.339 301.069 137.119C298.819 140.899 295.488 144.005 291.078 146.435C286.758 148.775 281.493 149.945 275.282 149.945ZM322.226 80.9556V129.424C322.226 134.824 323.216 138.559 325.196 140.629C327.176 142.61 330.687 143.6 335.727 143.6H343.962V149H334.782C328.391 149 323.666 147.515 320.606 144.545C317.636 141.485 316.151 136.444 316.151 129.424V80.9556H305.08V75.6902H316.151V57.059H322.226V75.6902H343.962V80.9556H322.226ZM416.554 107.417C416.554 110.658 416.464 113.088 416.284 114.708H352.965C353.145 121.278 354.585 126.814 357.285 131.314C359.985 135.814 363.54 139.189 367.951 141.44C372.361 143.69 377.176 144.815 382.397 144.815C389.597 144.815 395.628 143.06 400.488 139.549C405.348 135.949 408.408 131.089 409.668 124.968H416.014C414.574 132.439 410.883 138.514 404.943 143.195C399.003 147.785 391.487 150.08 382.397 150.08C375.556 150.08 369.436 148.55 364.036 145.49C358.635 142.43 354.405 138.064 351.345 132.394C348.285 126.634 346.754 119.928 346.754 112.278C346.754 104.627 348.24 97.9666 351.21 92.2963C354.27 86.6259 358.5 82.3057 363.901 79.3355C369.301 76.2753 375.466 74.7452 382.397 74.7452C389.417 74.7452 395.493 76.2753 400.623 79.3355C405.843 82.3057 409.803 86.3109 412.504 91.3512C415.204 96.3015 416.554 101.657 416.554 107.417ZM410.478 109.712C410.748 103.232 409.578 97.7416 406.968 93.2413C404.448 88.7411 400.983 85.4109 396.573 83.2507C392.162 81.0006 387.392 79.8755 382.262 79.8755C377.131 79.8755 372.361 81.0006 367.951 83.2507C363.63 85.4109 360.075 88.7411 357.285 93.2413C354.585 97.7416 353.145 103.232 352.965 109.712H410.478ZM431.54 94.9965C433.61 89.0561 437.345 84.1958 442.746 80.4155C448.236 76.6353 454.851 74.7452 462.592 74.7452C469.432 74.7452 475.508 76.2753 480.818 79.3355C486.218 82.3957 490.404 86.7609 493.374 92.4313C496.434 98.1017 497.964 104.717 497.964 112.278C497.964 119.838 496.434 126.499 493.374 132.259C490.404 137.929 486.218 142.34 480.818 145.49C475.508 148.55 469.432 150.08 462.592 150.08C454.941 150.08 448.371 148.19 442.881 144.41C437.48 140.539 433.7 135.679 431.54 129.829V183.562H425.464V75.6902H431.54V94.9965ZM491.754 112.278C491.754 105.617 490.494 99.8568 487.973 94.9965C485.453 90.1362 481.898 86.4459 477.308 83.9258C472.807 81.3156 467.587 80.0105 461.647 80.0105C455.976 80.0105 450.846 81.3606 446.256 84.0608C441.665 86.6709 438.065 90.4512 435.455 95.4015C432.845 100.262 431.54 105.887 431.54 112.278C431.54 118.758 432.845 124.473 435.455 129.424C438.065 134.284 441.665 138.064 446.256 140.764C450.846 143.375 455.976 144.68 461.647 144.68C467.587 144.68 472.807 143.375 477.308 140.764C481.898 138.154 485.453 134.419 487.973 129.559C490.494 124.698 491.754 118.938 491.754 112.278Z" fill="white"/>
<path d="M500.509 101.747C500.509 92.4764 502.579 84.1959 506.72 76.9054C510.95 69.5249 516.665 63.8096 523.866 59.7593C531.156 55.6191 539.302 53.5489 548.302 53.5489C558.833 53.5489 568.058 56.2491 575.979 61.6494C583.899 67.0498 589.435 74.5203 592.585 84.0609H570.849C568.689 79.5606 565.628 76.1854 561.668 73.9352C557.798 71.6851 553.298 70.56 548.167 70.56C542.677 70.56 537.772 71.8651 533.451 74.4753C529.221 76.9954 525.891 80.5956 523.461 85.2759C521.12 89.9562 519.95 95.4466 519.95 101.747C519.95 107.957 521.12 113.448 523.461 118.218C525.891 122.898 529.221 126.544 533.451 129.154C537.772 131.674 542.677 132.934 548.167 132.934C553.298 132.934 557.798 131.809 561.668 129.559C565.628 127.219 568.689 123.798 570.849 119.298H592.585C589.435 128.929 583.899 136.444 575.979 141.845C568.148 147.155 558.923 149.81 548.302 149.81C539.302 149.81 531.156 147.785 523.866 143.735C516.665 139.594 510.95 133.879 506.72 126.589C502.579 119.298 500.509 111.018 500.509 101.747ZM618.18 49.0936V149H599.278V49.0936H618.18ZM636.989 65.2947C633.659 65.2947 630.869 64.2596 628.619 62.1895C626.458 60.0293 625.378 57.3742 625.378 54.224C625.378 51.0738 626.458 48.4636 628.619 46.3935C630.869 44.2333 633.659 43.1533 636.989 43.1533C640.319 43.1533 643.065 44.2333 645.225 46.3935C647.475 48.4636 648.6 51.0738 648.6 54.224C648.6 57.3742 647.475 60.0293 645.225 62.1895C643.065 64.2596 640.319 65.2947 636.989 65.2947ZM646.305 74.2052V149H627.404V74.2052H646.305ZM748.414 73.1252C757.595 73.1252 764.976 75.9603 770.556 81.6307C776.226 87.2111 779.061 95.0416 779.061 105.122V149H760.16V107.687C760.16 101.837 758.675 97.3817 755.705 94.3215C752.735 91.1713 748.684 89.5962 743.554 89.5962C738.424 89.5962 734.329 91.1713 731.268 94.3215C728.298 97.3817 726.813 101.837 726.813 107.687V149H707.912V107.687C707.912 101.837 706.427 97.3817 703.457 94.3215C700.486 91.1713 696.436 89.5962 691.306 89.5962C686.085 89.5962 681.945 91.1713 678.885 94.3215C675.915 97.3817 674.43 101.837 674.43 107.687V149H655.529V74.2052H674.43V83.2508C676.86 80.1006 679.965 77.6255 683.745 75.8253C687.616 74.0252 691.846 73.1252 696.436 73.1252C702.287 73.1252 707.507 74.3852 712.097 76.9054C716.687 79.3356 720.243 82.8458 722.763 87.4361C725.193 83.1158 728.703 79.6506 733.293 77.0404C737.974 74.4302 743.014 73.1252 748.414 73.1252ZM806.448 85.1409C808.878 81.5407 812.208 78.6155 816.439 76.3654C820.759 74.1152 825.664 72.9902 831.155 72.9902C837.545 72.9902 843.305 74.5653 848.436 77.7155C853.656 80.8657 857.751 85.3659 860.722 91.2163C863.782 96.9767 865.312 103.682 865.312 111.333C865.312 118.983 863.782 125.779 860.722 131.719C857.751 137.569 853.656 142.115 848.436 145.355C843.305 148.595 837.545 150.215 831.155 150.215C825.574 150.215 820.669 149.135 816.439 146.975C812.298 144.725 808.968 141.845 806.448 138.334V149H787.547V49.0936H806.448V85.1409ZM846.006 111.333C846.006 106.832 845.061 102.962 843.17 99.7219C841.37 96.3917 838.94 93.8715 835.88 92.1614C832.91 90.4513 829.67 89.5962 826.159 89.5962C822.739 89.5962 819.499 90.4963 816.439 92.2964C813.469 94.0065 811.038 96.5267 809.148 99.8569C807.348 103.187 806.448 107.102 806.448 111.603C806.448 116.103 807.348 120.018 809.148 123.348C811.038 126.679 813.469 129.244 816.439 131.044C819.499 132.754 822.739 133.609 826.159 133.609C829.67 133.609 832.91 132.709 835.88 130.909C838.94 129.109 841.37 126.544 843.17 123.213C845.061 119.883 846.006 115.923 846.006 111.333Z" fill="white"/>
</svg>
